# xmcd CD database file
#
# Track frame offsets:
#	150
#	5141
#	27834
#	48172
#	70349
#	95342
#	118829
#	137654
#	161912
#	182297
#	200896
#	217349
#	239213
#	261621
#
# Disc length: 3743 seconds
#
# Revision: 0
# Processed by: cddbd v1.4PL0 Copyright (c) Steve Scherf et al.
# Submitted via: Feurio! 1.66 - http://www.feurio.com
#
DISCID=de0e9d0e
DTITLE=Impactus 4 - Amar p'ra vencer
DYEAR=1900
DGENRE=Aficana
TTITLE0=Intro
TTITLE1=Por Ti...
TTITLE2=Conselho d'amigo
TTITLE3=Amar p'ra vencer
TTITLE4=Mi vida
TTITLE5=Não me enganas - Fingida
TTITLE6=I Want the World to Know
TTITLE7=Intereceiro
TTITLE8=Vem comigo
TTITLE9=Minha Mulher
TTITLE10=At first Sight
TTITLE11=Stting myself free
TTITLE12=Amigo Adidas
TTITLE13=Bilieve
EXTD=ProduMédia Sanumbila - Beto Bumbu
EXTT0=
EXTT1=
EXTT2=
EXTT3=
EXTT4=
EXTT5=
EXTT6=
EXTT7=
EXTT8=
EXTT9=
EXTT10=
EXTT11=
EXTT12=
EXTT13=
PLAYORDER=
